<svg xmlns="http://www.w3.org/2000/svg" height="24px" viewBox="0 -960 960 960" width="24px" fill="#1f1f1f"><path d="M240-80q-17 0-28.5-11.5T200-120q0-17 11.5-28.5T240-160h40v-280q0-83 58.5-141.5T480-640q83 0 141.5 58.5T680-440v280h40q17 0 28.5 11.5T760-120q0 17-11.5 28.5T720-80H240Zm240-640q-17 0-28.5-11.5T440-760v-80q0-17 11.5-28.5T480-880q17 0 28.5 11.5T520-840v80q0 17-11.5 28.5T480-720ZM360-160h80v-120q0-17 11.5-28.5T480-320q17 0 28.5 11.5T520-280v120h80v-280q0-50-35-85t-85-35q-50 0-85 35t-35 85v280Zm120-320q8 0 14-6t6-14v-80q0-8-6-14t-14-6q-8 0-14 6t-6 14v80q0 8 6 14t14 6Z"/></svg>